<svg xmlns="http://www.w3.org/2000/svg" viewBox="0 0 96 60">
  <defs>
    <style>
      .cls-1, .cls-3 {
        fill: #bf4046;
      }

      .cls-1, .cls-2 {
        fill-rule: evenodd;
      }

      .cls-2 {
        fill: #aa3839;
      }

      .cls-4 {
        fill: #f66263;
      }

      .cls-5 {
        fill: #ff8585;
      }

      .cls-6 {
        fill: #f16161;
      }
    </style>
  </defs>
  <g>
    <g>
      <polygon class="cls-1" points="4.25 4.18 44.15 4.18 44.15 14.14 7.19 14.14 4.25 4.18"/>
      <polygon class="cls-2" points="18.5 17.29 42.94 20.69 46.89 14.14 7.19 14.14 18.5 17.29"/>
      <polygon class="cls-1" points="8.02 16.99 47.92 16.99 47.92 26.95 11.05 26.95 8.02 16.99"/>
      <polygon class="cls-2" points="21.8 30.8 46.72 33.35 50.66 26.8 11.05 26.8 21.8 30.8"/>
      <polygon class="cls-1" points="11.95 29.91 51.85 29.91 51.85 39.87 15.51 39.87 11.95 29.91"/>
      <g>
        <polygon class="cls-1" points="91.75 4.18 51.85 4.18 51.85 14.14 88.81 14.14 91.75 4.18"/>
        <polygon class="cls-2" points="77.5 17.29 53.06 20.69 49.11 14.14 88.81 14.14 77.5 17.29"/>
        <polygon class="cls-1" points="87.98 16.99 48.08 16.99 48.08 26.95 84.95 26.95 87.98 16.99"/>
        <polygon class="cls-2" points="74.2 30.95 49.28 33.5 45.34 26.95 84.95 26.95 74.2 30.95"/>
        <polygon class="cls-1" points="84.05 30.06 44.15 30.06 44.15 40.02 80.49 40.02 84.05 30.06"/>
        <polygon class="cls-2" points="74.2 30.8 49.28 33.35 45.34 26.8 84.95 26.8 74.2 30.8"/>
        <polygon class="cls-1" points="84.05 29.91 44.15 29.91 44.15 39.87 80.49 39.87 84.05 29.91"/>
      </g>
    </g>
    <g>
      <path class="cls-3" d="M62.8,41.6Q48.07,34,33.33,41.6q8.88,5.79,5.74,11.58c-1,1.85,18.82,1.69,17.86-.24Q54.11,47.27,62.8,41.6Z"/>
      <path class="cls-4" d="M54.48,45.9h-13a14,14,0,0,1-14-13L25.26,2.31A2.07,2.07,0,0,1,27.32.09H68.68a2.07,2.07,0,0,1,2.06,2.22L68.46,32.92A14,14,0,0,1,54.48,45.9Z"/>
      <path class="cls-5" d="M67,11.26a8.11,8.11,0,0,1-7.08-7.08c0-.08-.1-.08-.11,0a8.09,8.09,0,0,1-7.08,7.08c-.07,0-.07.1,0,.11a8.07,8.07,0,0,1,7.08,7.08c0,.07.11.07.11,0A8.09,8.09,0,0,1,67,11.37C67.05,11.36,67.05,11.26,67,11.26Z"/>
      <path class="cls-5" d="M48,18.07V5.85a1.74,1.74,0,0,0-1.24-1.67H30a.44.44,0,0,0-.44.47l2.09,28a9.69,9.69,0,0,0,1.16,4,1.28,1.28,0,0,0,1.53.6A20.18,20.18,0,0,0,48,18.07Z"/>
      <path class="cls-6" d="M67.81,50.35H28.19a3.1,3.1,0,0,0-3.1,3.1V58a2,2,0,0,0,2,1.95H69a2,2,0,0,0,2-1.95V53.45A3.1,3.1,0,0,0,67.81,50.35Z"/>
    </g>
  </g>
</svg>
